<?xml version="1.0" encoding="UTF-8"?>
<svg id="_图层_2" data-name="图层 2" xmlns="http://www.w3.org/2000/svg" viewBox="0 0 1920 220">
  <defs>
    <style>
      .cls-1 {
        fill: #0dc7fe;
      }

      .cls-2 {
        fill: #01dcfe;
      }

      .cls-3 {
        fill: #25a9fe;
      }

      .cls-4 {
        fill: #1cc2fe;
      }

      .cls-5 {
        fill: #1bb7fe;
      }

      .cls-6 {
        fill: #00d7fe;
      }

      .cls-7 {
        fill: #18c4fe;
      }

      .cls-8 {
        fill: #2ba1fd;
      }

      .cls-9 {
        fill: #27a6fe;
      }

      .cls-10 {
        fill: #2ca2fe;
      }

      .cls-11 {
        fill: #15bdfe;
      }

      .cls-12 {
        fill: #08d4fe;
      }

      .cls-13 {
        fill: #15c9fe;
      }

      .cls-14 {
        fill: #2e9efe;
      }

      .cls-15 {
        fill: #1cb5fe;
      }

      .cls-16 {
        fill: #0fcefd;
      }

      .cls-17 {
        fill: #04d2fe;
      }

      .cls-18 {
        fill: #02dafe;
      }

      .cls-19 {
        fill: #02d6fe;
      }

      .cls-20 {
        fill: #03d4fe;
      }

      .cls-21 {
        fill: #24a9fe;
      }

      .cls-22 {
        fill: #2ab1fe;
      }

      .cls-23 {
        fill: #21adfd;
      }

      .cls-24 {
        fill: #914e9b;
      }

      .cls-25 {
        fill: #0ec4fe;
      }

      .cls-26 {
        fill: #0ad3fe;
      }

      .cls-27 {
        opacity: .65;
      }

      .cls-28 {
        fill: #1db9fe;
      }

      .cls-29 {
        fill: #2ca0fe;
      }

      .cls-30 {
        opacity: .29;
      }

      .cls-31 {
        fill: #1ff2fd;
      }

      .cls-32 {
        fill: #1abcfd;
      }

      .cls-33 {
        fill: #32a5fe;
      }

      .cls-34 {
        opacity: .39;
      }

      .cls-35 {
        fill: #01abde;
      }

      .cls-36 {
        fill: #17c6fe;
      }

      .cls-37 {
        fill: #1db5fe;
      }

      .cls-38 {
        fill: #12cbfe;
      }

      .cls-39 {
        fill: #0cd1fe;
      }

      .cls-40 {
        fill: #1dbbfd;
      }

      .cls-41 {
        fill: #32b3fe;
      }

      .cls-42 {
        fill: #0dcffd;
      }

      .cls-43 {
        fill: #18b8fe;
      }

      .cls-44 {
        fill: #3a4a9d;
      }

      .cls-45 {
        fill: #19c5fe;
      }

      .cls-46 {
        fill: #27a8fe;
      }

      .cls-47 {
        fill: #33b2fe;
      }

      .cls-48 {
        fill: #24abfe;
      }

      .cls-49 {
        fill: #11c3fe;
      }

      .cls-50 {
        fill: #07cefe;
      }

      .cls-51 {
        fill: #1fb1fe;
      }

      .cls-52 {
        fill: #11cdfd;
      }

      .cls-53 {
        fill: #1bc3fe;
      }

      .cls-54 {
        fill: #18bafe;
      }

      .cls-55 {
        fill: #f3dda5;
      }

      .cls-56 {
        fill: #04d7fd;
      }

      .cls-57 {
        fill: #17c7fd;
      }

      .cls-58 {
        fill: #31a3fe;
      }

      .cls-59 {
        opacity: .1;
      }

      .cls-60 {
        fill: #da8b7f;
      }

      .cls-61 {
        fill: #29a5fe;
      }

      .cls-62 {
        fill: #1fbcfe;
      }

      .cls-63 {
        fill: #17bbfd;
      }

      .cls-64 {
        fill: #fcd201;
      }

      .cls-65 {
        fill: #13bffe;
      }

      .cls-66 {
        fill: #08cdfe;
      }

      .cls-67 {
        fill: #33a5fe;
      }

      .cls-68 {
        fill: #30a1fe;
      }

      .cls-69 {
        fill: #1cbdfe;
      }

      .cls-70 {
        fill: #19bffe;
      }

      .cls-71 {
        fill: #0acbfe;
      }

      .cls-72 {
        fill: #36aafe;
      }

      .cls-73 {
        fill: #12c1fd;
      }

      .cls-74 {
        fill: #20bafd;
      }

      .cls-75 {
        fill: #22affe;
      }

      .cls-76 {
        fill: #00dbfe;
      }

      .cls-77 {
        fill: #02d4fe;
      }

      .cls-78 {
        fill: #1db3fe;
      }

      .cls-79 {
        fill: #19c2fe;
      }

      .cls-80 {
        fill: #fc943f;
      }

      .cls-81 {
        fill: #16c3fe;
      }

      .cls-82 {
        fill: #05d1fe;
      }

      .cls-83 {
        fill: #26a7fd;
      }

      .cls-84 {
        fill: #1dc0fe;
      }

      .cls-85 {
        fill: #04d9fe;
      }

      .cls-86 {
        fill: #1fb8fe;
      }

      .cls-87 {
        fill: #0bc9fe;
      }

      .cls-88 {
        fill: #2db1fe;
      }

      .cls-89 {
        fill: #07d6fd;
      }

      .cls-90 {
        fill: #38abfe;
      }

      .cls-91 {
        fill: #30b4fe;
      }

      .cls-92 {
        fill: #07d0fe;
      }

      .cls-93 {
        fill: #2fb3fd;
      }

      .cls-94 {
        fill: #35a8fe;
      }

      .cls-95 {
        fill: #2ba3fe;
      }

      .cls-96 {
        fill: #fb4654;
      }
    </style>
  </defs>
  <g id="_图层_1-2" data-name="图层 1">
    <path class="cls-14" d="M1319.95,.09h517.95c-.04,3.67-3.19,3.92-5.53,4.71-13.43,4.53-27.25,7.51-41.13,10.28-20.24,4.04-40.69,6.5-61.24,8.24-13.59,1.15-27.23,1.29-40.82,2.11-24.31,1.47-48.63-.12-72.9,.93-39.56,1.71-79.01,4.8-117.51,14.89-17.77,4.66-35.06,10.61-50.81,20.35-15.84,9.79-28.04,22.47-32.03,41.37-2.11,10-.49,19.85,1.98,29.59,1.18,5.9,4.11,11.14,6.4,16.62,2.26,5.69,6.73,10.14,8.98,15.84,.9,2.3,2.93,3.83,4.08,5.96,1.35,2.92,4.44,4.37,6.02,7.09,4.09,4.58,9.37,7.72,14.02,11.62,3.83,1.87,7.3,4.42,11.31,5.94,7.59,2.88,15.06,6.06,22.88,8.32,2.3,.67,4.57,.78,6.89,.79,20.78,.03,41.56-.01,62.33,.03,7.73,.02,15.01-2.44,22.46-3.9,11.2-2.2,22.02-5.88,32.97-9.06,2.21-.64,4.43-1.39,6.29-2.84,6.36-2.96,12.81-5.73,19.2-8.64,1.49-.68,3.08-1.14,4.19-2.44,3.49-2.65,8.28-3.24,11.05-7.02,2.64-2.12,5.5-3.96,8.13-6.11,6.11-5.33,11.79-11.11,17.63-16.73,8.67-6.01,18.1-10.49,28.11-13.74,1.26-.41,2.56-.71,3.77-1.29,11.93-4.48,24.44-6.42,36.96-7.99,15.85-1.99,31.8-2.75,47.79-2.21,23.79,.8,47.31,2.66,70.2,10.43,13.4,4.55,27.76,4.91,41.97,4.59,2.91-.07,6.1-.63,8.34,2.15,0,25.31-.09,50.63,.1,75.94,.03,3.43-.68,4.1-4.1,4.09-100.49-.12-200.98-.1-301.47-.1h-377.47c-2.89-2.4-2.19-5.76-2.2-8.83-.08-32.25-.04-64.5-.04-96.75,0-17.12,0-34.24,0-51.37,0-2.82-.07-5.66,.74-8.4,.09-.56,.26-1.11,.51-1.62,5.74-4.68,12.92-6.56,19.45-9.71,17.98-8.69,34.8-19.1,50.06-32.04,4.62-3.92,8.5-8.9,14.47-11.1Z"/>
    <path class="cls-90" d="M1919.9,139.97c-15.14,.17-30.24,.09-45.21-2.93-8.02-1.62-15.49-4.92-23.48-6.7-9.95-2.22-20.02-3.03-30.04-4.28-12.74-1.58-25.59-1.34-38.39-1.01-22.15,.56-44.09,2.92-65.44,9.26-1.11,.33-2.27,.45-3.41,.67-5.44-1.86-11.08-1.78-16.73-1.78-87.85,.02-175.7,.01-263.55,.02-3.97,0-7.91-.26-11.58,2.07-2.07,1.31-4.51,1.19-6.11-1.31-3.12-11.87-4.73-23.8-1.19-35.89,5.06-17.29,16.83-29.13,31.67-38.23,22.64-13.88,47.82-20.7,73.58-25.73,17.77-3.47,35.75-5.39,53.76-7.22,31.36-3.19,62.78-2.43,94.19-2.97,23.39-.4,46.78-1.35,70.12-3.62,24.2-2.35,48.11-6.13,71.76-11.57,9.52-2.19,19.16-4.3,28.05-8.66,26.16,0,52.33,.06,78.49-.09,2.98-.02,3.59,.6,3.58,3.58-.12,45.46-.08,90.92-.08,136.39Z"/>
    <path class="cls-19" d="M48.07,.09h48c2.91,2.4,2.19,5.77,2.19,8.84,.08,28.97,.04,57.95,.04,86.92,0,20.81-.03,41.63,.02,62.44,.01,7.15-1.43,14.72,5.06,20.27-.57,3.79-3.33,3-5.65,2.44-4.17-1-8.41-1.98-12.37-3.56-9.34-3.71-19.49-5.07-28.41-9.9-9.65-3.01-19.03-6.71-28.14-11.06-1.96-.93-3.66-2.31-4.24-4.63-.8-2.09-.71-4.27-.71-6.43-.04-42.63-.05-85.25,0-127.88,0-2.98-.17-6.04,1.95-8.55,4.11-3.62,8.98-5.7,14.28-6.94,2.66-.63,5.58-.25,7.98-1.96Z"/>
    <path class="cls-75" d="M853,.09h42c2.45,1.93,2.18,4.71,2.2,7.34,.09,13.48,.04,26.95,.04,40.43,0,54.07,.03,108.14-.05,162.21,0,3.37,.94,7.1-2.2,9.84h-42c-2.45-1.93-2.18-4.71-2.2-7.34-.09-13.48-.04-26.95-.04-40.43,0-54.07-.03-108.14,.05-162.21,0-3.37-.94-7.1,2.2-9.84Z"/>
    <path class="cls-51" d="M853,.09V219.9h-39c-2.45-1.93-2.18-4.71-2.2-7.34-.09-13.48-.04-26.95-.04-40.43,0-54.07-.03-108.14,.05-162.21,0-3.37-.94-7.1,2.2-9.84h39Z"/>
    <path class="cls-61" d="M1116.97,219.9h-52c-2.89-2.4-2.19-5.76-2.2-8.83-.08-32.09-.04-64.19-.04-96.29,0-18.29-.06-36.59,.04-54.88,.02-3.13-.27-6.4,2.33-8.88,3.16-2.22,6.02-.32,8.93,.69,1.72,.59,2.97,2.17,4.91,2.3,11.16,4,22.44,7.53,34.16,9.55,2.52,.44,5.43,.75,5.85,4.26,1.31,4.28,.18,8.61,.19,12.9,.07,43.28,.08,86.55,0,129.83,0,3.22,.84,6.77-2.19,9.34Z"/>
    <path class="cls-23" d="M894.99,219.9V.09h37c2.45,1.93,2.18,4.71,2.2,7.34,.09,13.48,.04,26.95,.04,40.43,0,54.07,.03,108.14-.05,162.21,0,3.37,.94,7.1-2.2,9.84h-37Z"/>
    <path class="cls-66" d="M277.05,.09h51c2.1,1.63,2.18,3.98,2.18,6.32,.08,40.15,.09,80.31,.01,120.46,0,2.02-.44,3.94-.97,5.85-.27,5.27-5.18,5.47-8.33,7.6-11.96,7.19-24.51,13.3-36.76,19.97-1.98,1.08-4.08,1.46-6.15,.06-2.2-1.37-3.02-3.43-3.09-5.91-.04-1.49-.12-2.99-.12-4.48-.02-47.01-.03-94.03,.03-141.04,0-3.07-.69-6.42,2.2-8.82Z"/>
    <path class="cls-78" d="M814,.09V219.9h-36c-1.68-1.36-2.11-3.2-2.13-5.26-.04-3.44-.03-6.88,.01-10.33,.04-3.51,1.12-6.49,4.34-8.25,1.48-.81,2.17-1.9,2.21-3.5-.17-2.49,1.12-4.34,2.51-6.26,4.3-5.96,5.74-12.4,3.46-19.66-1.57-5.03-3.35-10.02-4.37-15.21-.21-.44-.39-.89-.56-1.34-2.21-3.96-2.49-8.91-6.26-12.07-1.2-2.04-2.04-4.17-1.5-6.6,1.15-3.12-.01-6.25,0-9.37,.08-37.55,.02-75.09,.1-112.64,0-3.22-.83-6.76,2.19-9.32h36Z"/>
    <path class="cls-20" d="M115.06,.09h39c2.61,2.08,2.19,5.06,2.2,7.84,.09,17.46,.04,34.92,.04,52.38,0,40.24,0,80.49,0,120.73,0,2.82,.25,5.66-.47,8.44-.43,.95-1.21,1.46-2.17,1.75-4.47,.91-8.89-.06-13.26-.68-6.53-.93-13.01-2.23-19.46-3.66-2.74-.6-5.51-1.31-7.27-3.85-.91-1.28-1.09-2.69-1.08-4.24,.52-56.3,.08-112.6,.28-168.9,.01-3.37-.94-7.09,2.19-9.82Z"/>
    <path class="cls-38" d="M500.03,219.9h-54.99c-3.37-3.6,.79-6.16,1.26-9.22,.12-1.41,.87-2.73,.58-4.19-3.52-3.64-4.06-8.12-4.06-12.9,.03-32.52,.02-65.04,.02-97.56,0-3.65-.02-7.3-.48-10.94,2.55-4.23,4.44-4.87,9.44-3.2,2.61,2.62,2.62,5.78,1.16,8.77-1.4,2.85-1.42,5.75-1.42,8.73,0,30.45,0,60.89,0,91.34,0-29.68,0-59.36,0-89.04,0-1,.01-2,0-2.99-.05-3.1-.11-6.64,4.15-6.48,4.17,.16,3.33,3.86,3.33,6.55,.04,33.84,.03,67.68,.02,101.52,0-33.77,0-67.55,0-101.32,0-2.33,.04-4.64-.77-6.9-1.85-5.13,1.73-8.77,3.66-12.86,1.01-3.25,4.11-3.32,6.6-4.23,2.58-.94,5.26-1.6,7.98-2.04,5.48-1.4,10.93-2.93,16.53-3.75,2.72-.4,5.6-1.45,8.17,.68,1.98,1.74,1.98,4.12,1.99,6.45,.1,39.05,.21,78.1-.08,117.14-.06,7.94-2.19,15.78-1.83,23.8,.05,1.03-.57,1.89-1.26,2.64Z"/>
    <path class="cls-13" d="M500.03,219.9c-2.43-7.45-.11-14.84,.41-22.24,.17-2.46,.59-4.93,.59-7.43,0-37.63,0-75.25,0-112.88,0-2.48,.28-5.02-1-7.33,.73-1.71,2.3-2.45,3.9-2.7,5.66-.9,11.26-2.31,17.05-2.19,7.14-1.69,14.38-2.3,21.71-2.21,4.82,.92,5.56,4.38,5.57,8.56,.03,24.87,.09,49.74-.07,74.6-.04,6.14,1.56,12.19,.68,18.33,.32,6.93,.05,13.88,.24,20.82,.04,1.48,.06,2.99-.53,4.4-3.33,7.93-2.71,16.15-1.75,24.38,.26,2.26-.03,4.28-1.79,5.89h-45Z"/>
    <path class="cls-92" d="M214.05,.09h34c2.46,1.92,2.18,4.7,2.19,7.33,.08,14.79,.03,29.59,.04,44.38,0,34.08,.02,68.16-.02,102.24,0,4.68-.39,9.36,4.24,12.52,1.22,.83,1.57,2.5,1.76,4.02-.37,6.21-5.87,6.65-9.89,8.75-8.07,3.72-16.34,6.88-24.99,9-2.82,.69-5.53,.96-7.95-1.13-1.77-1.92-1.55-4.34-1.56-6.63-.1-57.88-.09-115.76-.02-173.64,0-2.49-.08-5.06,2.2-6.84Z"/>
    <path class="cls-17" d="M155.06,189.93c-1.35-2.48-.99-5.18-.99-7.82-.01-60.67,0-121.35,0-182.02h30c2.75,2.24,2.19,5.41,2.2,8.33,.08,22.44,.04,44.88,.04,67.32,0,35.57,.01,71.14-.02,106.72,0,2.8,.4,5.66-.64,8.4-1.06,1.6-2.81,1.64-4.44,1.94-6.4,.69-12.81,.4-19.22,.17-2.59-.1-5.3-.47-6.92-3.03Z"/>
    <path class="cls-82" d="M185.06,190.93c-1.35-2.48-.99-5.18-.99-7.82-.01-61.01,0-122.01,0-183.02h30c0,60.03,0,120.06,.03,180.09,0,2.27-.62,4.69,.97,6.75,.09,2.57-1.82,3.45-3.73,3.86-7.26,1.56-14.64,2.09-22.05,2.18-1.7,.02-3.28-.41-4.22-2.05Z"/>
    <path class="cls-87" d="M354.04,.09h51c2.11,1.64,2.18,4,2.18,6.35,.08,27.31,.08,54.62,.02,81.92,0,3.07-1.04,5.88-1.73,8.77-.15,1.62-1.02,2.78-2.3,3.7-12.68,5.55-25.31,11.24-37.96,16.91-3.08,1.6-5.99,3.83-9.81,2.53-2.97-.92-3.42-3.33-3.52-5.94-.22-5.66-.11-11.32-.11-16.98,0-29.47-.04-58.94,.04-88.41,0-3.07-.69-6.44,2.2-8.85Z"/>
    <path class="cls-29" d="M1236.96,53.06V219.9h-34c-3.02-2.56-2.19-6.1-2.2-9.32-.08-36.7-.04-73.4-.04-110.1,0-9.47-.03-18.93,.02-28.4,.01-2.31-.16-4.66,.59-6.91,.48-2.91,2.68-4.12,5.15-4.76,8.66-2.26,17.24-4.81,25.74-7.61,1.59-.52,3.22-.93,4.74,.24Z"/>
    <path class="cls-3" d="M974.99,.09h24c2.45,1.93,2.18,4.71,2.2,7.34,.09,13.48,.04,26.95,.04,40.43,0,54.07,.03,108.14-.05,162.21,0,3.37,.94,7.1-2.2,9.84h-24c-2.45-1.93-2.18-4.71-2.2-7.34-.09-13.48-.04-26.95-.04-40.43,0-54.07-.03-108.14,.05-162.21,0-3.37-.94-7.1,2.2-9.84Z"/>
    <path class="cls-50" d="M255.05,171.95c-1.22-2.35-1.24-5.76-5.38-5.4-1.48,.13-1.54-1.49-1.59-2.65-.06-1.5-.03-3-.03-4.49,0-53.11,0-106.21,0-159.32h29c0,50.69,0,101.38,0,152.06,0,3-.38,6.12,3,7.81,.06,3.79-3.68,3.6-5.6,5.33-4.23,2.85-8.91,4.85-13.5,7-1.94,.91-4.04,1.61-5.9-.33Z"/>
    <path class="cls-48" d="M931.99,219.9V.09h22c2.45,1.93,2.18,4.71,2.2,7.34,.09,13.48,.04,26.95,.04,40.43,0,54.07,.03,108.14-.05,162.21,0,3.37,.94,7.1-2.2,9.84h-22Z"/>
    <path class="cls-8" d="M1202.96,64.02c0,51.96,0,103.93,0,155.89h-31c-3.02-2.56-2.19-6.1-2.19-9.32-.07-37.85-.05-75.71-.04-113.56,0-7.97,0-15.94,0-23.91,0-2.98,.92-5.16,3.74-6.37,2.25-1.14,4.78-.58,7.13-1.12,.57-.08,1.15-.16,1.72-.25,4.71-1.42,9.64-1.81,14.4-3.02,2.26-.58,4.6-.56,6.23,1.66Z"/>
    <path class="cls-83" d="M1040.98,219.9h-24c-2.61-2.08-2.19-5.06-2.2-7.83-.08-20.28-.04-40.55-.04-60.83,0-40.89-.05-81.77,.05-122.66,.01-4.92-.24-10,2.99-14.29,2.79-1.8,4.93-.17,6.47,1.77,5.19,6.56,11.53,11.89,17.84,17.28,2,1.7,3.29,3.78,2.1,6.59-1.31,3.2-.95,6.57-.95,9.88-.03,53.42,0,106.84-.07,160.26,0,3.37,.96,7.1-2.19,9.84Z"/>
    <path class="cls-21" d="M953.99,219.9V.09h21V219.9h-21Z"/>
    <path class="cls-42" d="M365.04,115.99c10.64-5.56,21.5-10.63,32.75-14.85,1.37-.51,2.83-.76,4.25-1.14,2.54-1.09,3.25,.77,3.82,2.52,.47,1.42,.38,2.96,.38,4.45,.07,35.2,.06,70.4,0,105.6,0,2.63,.24,5.4-2.2,7.33h-39c-2.1-1.64-2.18-3.98-2.19-6.33-.1-30.22-.08-60.44-.02-90.66,0-2.54,.31-4.99,2.2-6.93Z"/>
    <path class="cls-1" d="M404.04,98.01c2.17-32.62,.45-65.28,1-97.92h49c1.92,1.49,2.16,3.61,2.16,5.82,.07,21.89,.11,43.77,0,65.66-.02,3.12-1.55,5.72-2.21,8.6-.03,.62-.21,1.19-.54,1.71-.76,.72-1.57,.8-2.42,.15-2.53,1.35-5.7,1.01-8,3-3.14,4.2-8.14,4.37-12.57,5.8-6.19,2.76-12.83,4.33-18.99,7.2-2.35,1.1-4.97,2.16-7.44-.01Z"/>
    <path class="cls-9" d="M1040.98,219.9c0-58.57-.01-117.15,.05-175.72,0-2.33-1.41-5.73,2.95-6.13,3.41-2.1,5.39,.82,7.82,2.19,.69,.67,1.46,1.23,2.29,1.71,3.32,1.7,6.56,3.57,9.87,5.3,1.48,.77,3.48,1.37,3.01,3.79-2.22,2.86-2,6.23-2,9.56,0,53.1,0,106.2,0,159.3h-24Z"/>
    <path class="cls-10" d="M1174.97,68.04c-1.34,1.14-3.21,1.16-3.19,4.14,.22,49.24,.18,98.48,.19,147.73h-28c-3.02-2.57-2.19-6.12-2.2-9.34-.07-42.91-.04-85.82-.04-128.73,0-2-.02-3.99,.09-5.99,.3-5.68,1.58-7.11,7.18-7.26,3.53-.09,6.84-1.45,10.36-1.46,3.21,.39,6.35,.88,9.53-.59,2.2-1.02,4.46-.66,6.08,1.5Z"/>
    <path class="cls-15" d="M778,.09c0,41.35,0,82.69,.02,124.04,0,3.01-.1,5.97-1.02,8.85-2.57,.64-3.38-1.53-4.52-2.97-4.55-5.79-9.2-11.48-14.37-16.74-3.96-2.48-7.47-5.48-10.54-9.01-.74-1.96-2.61-2.4-4.26-3.15-1.54-.93-2.53-2.2-2.5-4.09-2.33-6.23-2.05-12.72-2.04-19.19,.02-23.14-.03-46.27,.04-69.41,0-2.92-.59-6.1,2.18-8.34h37Z"/>
    <path class="cls-95" d="M1159.97,69.04c-3.26,1.92-6.85,.97-10.25,.9-4.34-.09-5.84,1.55-5.81,5.86,.14,23.27,.06,46.54,.06,69.81,0,24.77,0,49.53,0,74.3h-27c0-47.23-.03-94.45,.05-141.68,0-3.73-.52-7.57,.95-11.19,1.44-2.07,3.57-2.21,5.73-1.89,6.82,.99,13.67,1.6,20.54,1.98,3.49,.01,6.96-.52,10.46-.24,1.99,.16,4.06,.09,5.26,2.16Z"/>
    <path class="cls-39" d="M365.04,115.99v103.91h-43c-1.51-1.26-2.11-2.9-2.12-4.83-.1-25.37-.36-50.74,.12-76.1,2.67-1.66,5.33-3.33,8-4.99,.72-1.31,1.38-2.7,2.83-3.37,8.67-3.98,16.54-9.78,26.17-11.62,2.67-1,5.33-2,8-3Z"/>
    <path class="cls-36" d="M545.02,219.9c1.09-3.7-1.3-6.92-1.31-10.62-.05-14.89,5.37-29.34,3.31-44.33,4.16-.87,5.59,.13,6.04,4.49,.39,3.76-.05,7.59,.54,11.97,1.53-1.77,1.17-3.27,1.19-4.64,.07-4.65,0-9.31,.04-13.96,.08-9.93,1.05-11.11,10.85-13.28,7-1.55,8.12-2.86,8.11-10.18-.02-24.1,.17-48.2-.11-72.3-.02-1.7-.12-3.33,1.14-4.69,5.26-2.78,10.74-1.38,16.17-.83,1.02,.11,1.89,.52,2.59,1.27,.8,1.12,1.08,2.37,1.03,3.75-.83,24.21-.16,48.44-.35,72.65-.04,4.65-.44,9.23-1.41,13.8-.8,3.75-.9,7.6,1.95,10.8,2.03,5.88,2.13,11.71-.82,17.34-2.63,5.01-1.5,10.4-1.77,15.65-.17,3.28,.4,6.73-2.4,9.31-5.07,4.95-11.92,6.78-17.97,10.02-1.45,.78-3.21-.01-4.72-.87-5.06-2.87-5.09-2.84-8.18,2.38-.51,.87-1.25,1.54-1.92,2.27h-12Z"/>
    <path class="cls-46" d="M1019.98,14.07c-3.42,4.21-2.91,9.36-2.92,14.16-.12,63.89-.08,127.78-.08,191.67h-18V.09h12c4.27,3.85,8.96,7.43,9,13.99Z"/>
    <path class="cls-2" d="M26.07,152.96c10.33,4.33,20.66,8.66,31,12.99,2.41,2.15,3.11,4.98,3.14,8.04,.16,13.37,.13,26.74,.02,40.12-.02,2.2-.27,4.3-2.17,5.8-18.33,0-36.66-.06-54.99,.07-2.5,.02-3.08-.57-3.07-3.06,.11-24.98,.07-49.96,.07-74.94,1.45-1.33,3.1-1.09,4.68-.44,5.84,2.43,11.58,5.08,17.34,7.69,1.75,.79,2.61,2.53,3.97,3.74Z"/>
    <path class="cls-41" d="M1202.96,64.02c-7.16-.12-13.83,3.13-20.99,3.01-1.98-6-5.48-11.65-3.59-18.48,.75-2.73-.41-5.59-.62-8.39-.92-12.19,2.08-24.12,2.18-36.22,.01-1.63,.92-2.79,2.03-3.84h55.99c1.91,1.49,2.15,3.6,2.17,5.81,.1,13.4,.05,26.8,.04,40.2,0,2.63-.96,4.79-2.21,6.94-.33,0-.66,.02-1,.03-9.12,4.12-18.78,6.53-28.4,9.07-1.9,.5-3.74,1.25-5.6,1.88Z"/>
    <path class="cls-6" d="M26.07,152.96c-7.14-2.18-13.56-6.07-20.49-8.75-1.85-.72-3.67-1.49-5.51-2.24,0-41.3,0-82.6,0-123.9,6.28-5.22,14.55-5.93,21.59-9.44,2.01-1,4.42-1.73,6.4,.45-2.48,1.96-2,4.73-2,7.35,0,45.51,0,91.02,0,136.53Z"/>
    <path class="cls-5" d="M741.01,.09c0,27.9,.01,55.81-.01,83.71,0,3.5-.2,7.06,1.71,10.17,1.06,1.73,0,2.79-.7,4.05-1.75,1.52-3.28,.35-4.97-.27-4.46-1.63-7.93-5.17-12.59-6.38-6.12-2.45-11.95-5.59-18.17-7.81-1.92-.69-3.41-2-4.35-3.86-1.8-2.01-2.09-4.43-2.1-6.98-.08-22.09-.08-44.18,0-66.28,0-2.35,.08-4.69,2.18-6.33h39Z"/>
    <path class="cls-77" d="M115.06,.09c0,57.68-.03,115.35,.08,173.03,0,3.27-1.32,6.55-.08,9.82-.68,1.07-1.75,1.34-2.91,1.44-3.5-.52-7.47-.08-9.09-4.44-.65-.74-1.25-2.07-1.96-2.13-5.98-.57-5.04-4.92-5.04-8.8,0-56.31,0-112.61,0-168.92h19Z"/>
    <path class="cls-71" d="M357.04,118.99c-9.19,5.91-19.07,10.5-29,14.99-1.24-3.27,.09-6.54,.08-9.81-.13-41.36-.08-82.72-.08-124.08h26c0,37.76-.01,75.51,.04,113.27,0,2.26-1.06,5.37,2.96,5.63Z"/>
    <path class="cls-16" d="M404.04,98.01c8.67-3,17.33-5.99,26-8.99,2.91,2.39,2.18,5.75,2.19,8.81,.07,33.86,.03,67.71,.04,101.57,0,2.49-.06,4.98,.11,7.47,.24,3.48,1.02,6.43,5.09,7.57,2.51,.7,3.71,2.72,2.57,5.48h-36c0-37.94,.02-75.89-.05-113.83,0-2.12,1.12-4.84-1.95-6.07,.67-.67,1.33-1.33,2-2Z"/>
    <path class="cls-88" d="M1143.97,69.02c-8.76,.54-17.3-1.72-26-1.99-8.75-2.3-17.8-3.41-26.4-6.32-4.54-1.53-9.06-3.11-13.6-4.67-.54-.65-1.25-1.52-1.13-2.17,1.29-7.06-3.58-11.61-6.7-16.87-.49-.82-.6-2.11-1.94-1.83-.94,.2-1.04,1.19-1.11,2.01-.27,3.05-.48,6.44-4.31,6.9-4.08,.49-7.09-2.07-8.85-5.38-1.41-2.66-3.05-5.08-4.73-7.53-3.99-5.8-1.62-11.94-.14-17.75,.75-2.92,4.14-2.82,6.35-.08,2.16,2.7,3.59,5.95,6.81,9.15-2.1-5.75-6.52-8.46-9.32-12.39-2.09-2.94-5.7-5.61-2.92-10.03h36c4.22,4.27-1.29,7.11-1.57,10.72,.05,.58,.22,.63,.37,.11,.94-3.15,1.45-6.95,5.34-7.61,4.23-.72,5.34,3.1,6.91,5.97,2.49,4.55,5.82,8.46,9.37,12.19,1.73,1.82,3.32,3.73,4.51,5.93,1.67,3.07,3.11,6.18,7.43,6.21,1.27,0,2.14,1.44,3.06,2.41,5.46,5.73,10.45,11.83,14.87,18.42,1.64,2.45,3.8,4.47,6.47,6.03,3.79,2.21,4,4.79,1.23,8.56Z"/>
    <path class="cls-26" d="M320.05,138.97c2.52,1.49,1.98,3.99,1.99,6.25,.02,24.89,.01,49.79,.01,74.68h-45c-2.29-1.78-2.16-4.35-2.18-6.84-.09-10.15-.02-20.3-.04-30.44-.01-4.98,.3-9.99-1.31-14.84-.44-1.34-.17-2.63,.53-3.83,1.22-2.5,4.19-2.38,6-4,12.43-6.61,24.85-13.22,37.29-19.81,.87-.46,1.81-.78,2.71-1.17Z"/>
    <path class="cls-49" d="M521.03,67.03c-7,1-14,2-21,3-7.67,1.66-15.33,3.33-23,4.99-2.71-2.9-3.01-6.64-3.07-10.23-.31-19.62-.18-39.24-.1-58.87,0-2.21,.25-4.34,2.17-5.84h45c2.1,1.63,2.17,3.97,2.18,6.32,.08,17.9,.07,35.8,.02,53.7,0,2.59-.54,4.91-2.2,6.93Z"/>
    <path class="cls-73" d="M521.03,67.03V.09h47c2.09,1.65,2.15,3.98,2.16,6.34,.04,15.62,.03,31.23,0,46.85,0,4.07-.58,7.69-5.37,8.86-.78,.19-.32,1.19-.61,1.77-5.36,4.05-11.25,2.47-16.98,1.4-1.78-.33-3.4-1.19-5.2-.27-7.04,.25-14.05,.75-21,2Z"/>
    <path class="cls-11" d="M593.02,63.04c-.67,0-1.33,0-2,0-2.46-1.14-3.12-3.23-3.15-5.74-.16-17.29-.14-34.58,0-51.87,.02-2.07,.43-3.96,2.15-5.34h41c2.45,1.91,2.17,4.67,2.19,7.29,.08,13.56,.02,27.12,.04,40.68,0,5.93-.29,11.87,1.16,17.71-1.53,2.36-3.8,2.19-6.21,1.94-4.79-.5-9.57-1.1-14.34-1.74-5.56,.27-11.11,.72-16.61-.65-1.65-.41-3.11-.96-4.22-2.27Z"/>
    <path class="cls-47" d="M1237.96,53.03c0-17.65,0-35.3,0-52.94h81.99c-9.36,11.18-21.06,19.7-32.97,27.77-15.27,10.34-31.74,18.62-49.03,25.18Z"/>
    <path class="cls-18" d="M103.06,179.94c3,1,6,2,9,3,2.18,1.06,3.06,2.86,3.11,5.23,.18,8.97,.17,17.93,0,26.9-.04,1.93-.61,3.58-2.12,4.84H58.07c-.44-17.98,1.02-36-1-53.96,7.09,2.21,14.28,4.13,21.23,6.7,8.11,2.99,16.38,5.32,24.77,7.29Z"/>
    <path class="cls-91" d="M1181.97,.09c.81,9.81-1.01,19.46-2.1,29.12-.9,8.01,1.56,15.84,.13,24.07-.65,3.72,2.22,8.93,1.97,13.74-.33,0-.67,0-1,0-3.28,.2-4.13-2.9-6.01-4.53-2.29-1.98-3.62-2.38-5.16,.89-2.07,4.41-6.26,5.73-10.32,3.18-4.04-2.54-8.16-5.22-10.14-9.97-.9-2.17-2.16-4.08-3.97-5.65-2.25-1.96-3.31-4.53-3.4-7.5-.07-2.34-.37-4.53-1.51-6.7-1.49-2.83-1.06-5.38,3.23-7.02-8.93,.51-13.61-4.33-17.19-10.71-.92-1.63-2.39-2.76-3.39-4.28-.87-1.32-1.34-2.73-.21-4.14,1.13-1.41,2.86-1.56,4.04-.62,4.18,3.3,10.73,3.21,13.02,9.34,1.51-4.93,1.36-9.18-2.89-12.62-2.02-1.64-4.37-3.47-2.08-6.6h47Z"/>
    <path class="cls-79" d="M629.02,219.9h-17c-1.25-1.1-1.2-2.55-1.23-4.07-.11-5.55-.82-5.98-6.07-3.78-1.21,.51-2.4,1.06-3.61,1.57-2.05,.87-4.12,1.12-6.09-.32-3.69-6.93-2.06-11.22,5.21-13.74,1.88-.65,3.64-1.62,5.47-2.33,2.95-1.13,4.01-3.18,4.08-6.12,.11-4.97-.04-9.94,.13-14.91,.11-3.17,.5-6.28,2.84-8.74,4.47-1.38,7.99-4.69,12.5-6.05,2.3-.7,2.52-2.86,2.58-4.93,.11-3.49,0-6.98,.11-10.47,.07-2.25,.63-4.28,2.42-5.79,2.93-2.47,6.2-1.48,7.27,2.28,.78,2.75,.36,5.62,.55,8.44,.12,1.75-.37,4,1.95,4.63,2.1,.57,4.33,.57,5.91-1.47,.72-.92,1.43-1.84,2.44-2.48,1.24-.83,2.51-1.57,4.02-1.85,4.54-.84,7.78,1.99,6.79,6.41-1.61,7.22-1.55,14.37-.12,21.56,.27,1.35,.17,2.62-.52,3.82-1.01,1.37-2.5,1.67-4.06,1.8-1.09-.05-2.08,.1-2.64,1.23-1.03,1.08-1.93,2.26-2.9,3.4-1.04,1.7-2.54,2.94-4.33,3.98,1.18,1.53,3.21,1.36,4.12,2.83,1.54,5.09,.6,7.49-4.02,9.56-2.42,1.08-4.9,2.04-7.24,3.31-3.28,1.77-6.41,3.54-6.04,8.12,.14,1.77-1.32,2.96-2.53,4.12Z"/>
    <path class="cls-89" d="M185.06,190.93c8.4,.08,16.71-.83,25-2.06,1.79-.27,3.56-.7,5-1.93,7.72-.17,14.6-3.51,21.7-5.93,3.09-1.05,5.91-2.88,9.3-3.06,2.07,1.04,2.56,2.84,2.45,4.97-.51,10.07-.07,20.14-.27,30.21-.05,2.48,.08,5.02-2.19,6.79h-63.99c-1.12-1.05-1.98-2.21-2.03-3.84-.24-7.62-.4-15.24,.08-22.86,.05-.85,.58-1.54,.95-2.27,1.33,0,2.67,0,4,0Z"/>
    <path class="cls-93" d="M1134.97,.09c-.13,2.08,.9,3.41,2.64,4.42,6.2,3.62,5.85,9.48,5.1,15.39-.19,1.48-.87,3.08-2.66,3.19-1.6,.1-2.4-1.48-2.6-2.62-.7-4.04-3.04-5.57-6.94-5.6-2.11-.02-2.52-2.5-4.08-3.42-.85-.5-1.8-1.1-2.68-.1-.5,.56-.41,1.41,.14,1.78,5.21,3.49,6.39,10.52,12,13.64,.56,.31,1.41,1.09,1.6,.95,3.76-2.8,6.05,2.24,9.44,1.74,1.15-.17,2.13,1.14,1.54,2.5-.52,1.2-1.65,.89-2.55,.35-1.52-.9-3.09-1.76-4.33,.19-1.2,1.88,.12,3.05,1.51,4.14,.35,.28,.71,.88,.66,1.28-.77,6.25,2.76,10.37,5.91,15.36,2.85,4.52,6.24,7.95,10.02,11.26,3.43,3.01,6.92,1.71,8.39-2.79,1.42-4.35,4.21-4.95,7.43-1.73,2.13,2.12,4.12,4.31,5.47,7.03-1.8,1.52-3.97,.82-6,1-5.03-.15-9.94,1.59-15,1-5.33,0-10.67-.01-16-.02,.49-3.42,1.07-6.84-3.98-7.34-.64-.06-1.3-.96-1.78-1.6-4.38-5.76-8.82-11.48-13.05-17.35-2.04-2.83-5.61-4.21-7-7.62-.13-.32-1.07-.68-1.26-.54-5.52,4.25-5.29-1.84-6.38-3.96-2.42-4.71-6.38-8.02-9.54-12.03-2.67-3.39-5.58-6.62-6.97-10.84-.54-1.63-1.33-3.34-3.34-3.14-2.33,.23-3.27,2.1-3.57,4.21-.25,1.8-.21,3.65-.52,5.44-.17,.99-.92,1.87-2.03,1.94-1.14,.07-1.93-.82-2.13-1.78-.5-2.39-1.58-5.41,.84-6.92,3.16-1.98,2.61-4.67,2.71-7.42h49Z"/>
    <path class="cls-52" d="M440.03,219.9c-.93-2.06-1.34-4.62-4.8-3.34-2.19,.82-3.41-.7-3.97-2.67-.86-3.04-1.27-6.13-1.27-9.32,.05-38.52,.03-77.04,.03-115.56,4.38-1.18,8.36-3.65,13-4,3.06,1.22,1.95,3.93,1.95,6.05,.07,34.01,.04,68.02,.07,102.03,0,2.3,.2,4.63,.56,6.91,.35,2.24,.49,4.8,4.08,4.22,1.19-.19,2.37,.9,1.95,2.25-.39,1.25-1.7,.39-2.61,.44-1.48,1.01-3.14,1.71-4.55,2.87-1.92,1.59-3.4,3.13-1.4,5.7,1.1,1.41,1.35,2.96-.05,4.42h-3Z"/>
    <path class="cls-54" d="M651.01,.09h3c1.48,1.71,.97,3.79,.98,5.73,.04,16.42,.02,32.85,.02,49.27,0-16.42-.02-32.85,.02-49.27,0-1.94-.5-4.02,.98-5.73h24c1.72,1.38,2.14,3.27,2.15,5.34,.13,21.11,.18,42.22-.04,63.34-.01,1.33-.1,2.67-.86,3.84-1.89,2.46-4.43,2.43-7.19,1.99-5.56-.88-10.93-2.68-16.55-3.25-2.92-.35-5.86-.68-7.62-3.53-.99-1.99-1.1-4.14-1.1-6.3-.05-18.21-.07-36.42,.01-54.63,.01-2.48-.08-5.03,2.19-6.81Z"/>
    <path class="cls-25" d="M476.03,.09c0,20.44,.12,40.88-.09,61.32-.05,4.62,2.44,8.96,1.09,13.62-4.67,1.33-9.33,2.67-14,4-.71,1.74-2.15,2.4-3.88,2.64-2.04-.15-4.27,1.42-6.12-.64-1.39-.9-2.55-2.15-1.17-3.63,2.76-2.95,2.15-6.5,2.15-9.93,.03-22.46,.02-44.91,.02-67.37h22Z"/>
    <path class="cls-43" d="M680.01,73.03c0-24.31,0-48.63,0-72.94h22c0,24.15,.02,48.29-.03,72.44,0,2.74,.17,5.32,2.03,7.5-1.21,1.5-2.85,1.57-4.49,1.13-6.3-1.73-12.83-2.73-18.62-6.03-.7-.53-1.17-1.15-.89-2.09Z"/>
    <path class="cls-28" d="M741.01,219.9h-37c-3.6-4.05-2.05-8.71-1.57-13.24,3.87-3.59,7.95-6.91,13.01-8.74,4.62-1.67,5.69-3.28,5.18-8.19-.14-1.32-.5-2.61-.35-3.95,.25-2.21,.72-4.47,3.08-5.26,2.29-.76,3.73,.9,4.82,2.64,1.44,2.31,3.58,3,6.01,2.46,2.43-.55,2.4-2.88,2.8-4.8,.1-.49,.28-.98,.28-1.46-.04-3.77-.73-7.68,2.9-10.47,3.09-2.38,6.59-3.78,10.37-4.58,2.17-1.13,4.34-2.2,6.8-.8,3.21,5.79,1.97,11.81,.77,17.79-.23,1.13-1.29,1.87-2.3,2.52-4.64,2.97-5.87,6.19-4.6,11.54,.31,1.3,.73,2.18,2.26,1.98,2.44-.31,4.82-.28,5.6,2.7,.72,2.78-.71,5.42-2.73,6.47-3.74,1.94-4.54,5.48-6.2,8.62-2.12,3.34-6.29,2.75-9.11,4.76Z"/>
    <path class="cls-12" d="M246.05,219.9c.33-13.02-.68-26.05,.54-39.06,.09-.94-.35-1.94-.54-2.91,2.21-3.19,7.02-2.46,9-5.99,5.1-.55,8.99-3.93,13.53-5.77,1.82-.74,3.64-1.49,5.46-2.23,2.26,3.98,3.1,8.22,3.06,12.83-.15,14.38-.06,28.75-.06,43.13h-31Z"/>
    <path class="cls-65" d="M590.02,.09c0,18.72,0,37.43,0,56.15,0,2.31-.18,4.66,1,6.8-5.33,0-10.67,0-16,0-4.1,2.88-7.12,2.88-11,0-.33,0-.68,.06-1-.01-1.62-.34-4.49,.91-4.46-1.66,.03-3.01,2.91-1.44,4.33-1.2,4.96,.85,5.13-2.22,5.13-5.66,0-18.14,0-36.28,0-54.42h22Z"/>
    <path class="cls-22" d="M1049.98,.09c1.07,5.28,4.17,9.31,8.13,12.7,3.4,2.91,5.53,6.57,7.05,10.68,.29,.79,.7,1.61,.06,2.33-.97,1.09-1.79,.1-2.6-.35-4.3-2.43-6.24-6.76-8.58-10.75-.59-1.01-.89-2.28-2.42-1.97-.9,.18-1.36,.98-1.45,1.83-.41,3.78-.76,7.57-1.12,11.36-.02,.16-.03,.38,.06,.49,3.79,4.91,4.97,11.62,10.7,15.21,3.4,2.13,4.91,1.13,5.14-2.61,.07-1.16-.13-2.35,.07-3.48,.24-1.38-.69-4.44,1.69-3.43,1.5,.64,6.32-2.6,4.98,2.98-.38,1.59,.56,3.16,1.73,3.94,5.88,3.97,6.18,9.43,4.58,15.53-.12,.47-.02,.99-.02,1.49-3.67-1.66-7.34-3.33-11-4.99-4.61-2.76-10-4.15-13.99-8-.35-.97-.83-1.67-2-1-2.36-1.28-4.23-3.43-7-3.99-1.91-3-4.99-4.83-7.68-6.88-6.39-4.87-11.21-11.09-16.33-17.1-2.95-4.69-7.29-8.49-9-13.99h39Z"/>
    <path class="cls-63" d="M651.01,.09V68.03c-4.5,2.45-12.64,1.5-17-2-2.76-1.72-3.05-4.35-3.04-7.33,.08-19.54,.04-39.08,.04-58.62h20Z"/>
    <path class="cls-85" d="M113.06,219.9c0-10.23,0-20.46,0-30.69,0-2.15,.08-4.3-1-6.28,1,0,2,0,3,0,12.44,3.56,25.2,5.38,38,7,1.5,1.26,2.08,2.9,2.12,4.82,.17,6.78,.17,13.56,0,20.34-.05,1.92-.62,3.56-2.12,4.82h-40Z"/>
    <path class="cls-32" d="M704.01,205.92v13.99h-44c-1.16-1.49-.61-2.97,.48-4.01,2.93-2.78,3.54-6.32,3.34-9.99-.29-5.42,2.31-8.64,7.07-10.63,3.19-1.33,6.26-2.94,9.63-3.8,5.66-3.08,11.78-5.14,17.68-7.68,2.29-.99,4.72-1.83,6.87,.48,2.21,5.87,.68,12.01,1.26,18.01,.15,1.56-1.32,2.55-2.33,3.62Z"/>
    <path class="cls-56" d="M153.06,219.9c0-9.99,0-19.98,0-29.97,.67,0,1.33,0,2,0,8.63,1.37,17.32,.95,26,1,2.05,5.78,.65,11.75,.96,17.62,.2,3.77,.04,7.57,.04,11.36h-29Z"/>
    <path class="cls-70" d="M681.01,192.93c-1.81,.73-3.6,1.54-5.44,2.19-6.34,2.23-10.99,5.31-9.75,13.41,.54,3.54-.23,7.64-4.75,9.28-.54,.19-.72,1.38-1.06,2.11h-31c-.01-2.28,1.14-4.43,.38-6.86-.61-1.95,.7-3.45,2.4-4.48,3.41-2.06,6.65-4.61,10.55-5.5,4.64-1.06,6.42-3.59,5.67-8.15,2.32-2.66-.21-5.33,0-7.99,.21-1.79,1.21-2.79,3-3,.9-.81,2.07-1.22,3-2,1,.04,2-.75,3,0,2.32,2.14,.81,4.98,1.33,7.46,1.5,7.19,2.34,7.61,7.73,3.23,3.43-1.07,6.7-2.59,10.06-3.82,3.63-1.33,5.19,.1,4.88,4.12Z"/>
    <path class="cls-81" d="M596.02,212.91c4.06,.07,6.91-2.99,10.55-4.07,5.54-1.64,6.59-1.06,6.4,4.69-.07,2.13-.62,4.25-.96,6.37h-54.99c.23-6.78,2.26-9.37,7.1-8.94,.95,.08,2.37,.22,2.72,.83,2.94,5.02,5.61,2.19,8.83,.22,3.9-2.39,8.21-4.09,12.35-6.1,3.08-1.52,4.69,.31,5.29,2.84,.44,1.86,.93,3.33,2.71,4.15Z"/>
    <path class="cls-37" d="M741.01,219.9c1.83-3.01,4.83-4.13,8-5,2.8-4.21,7.87-6.35,9.89-11.43,.98-2.46,4.12-3.19,6.71-3.77,3.33-.74,5.91-2.29,8.34-4.79,2.58-2.65,5.78-5.12,10.05-2.99,.1,2.84-.47,5.2-3.49,6.48-2.34,.99-2.53,3.27-2.52,5.53,.03,5.32,0,10.65,0,15.97h-37Z"/>
    <path class="cls-76" d="M28.07,9.08c-5.76,.91-10.77,3.94-16.21,5.77-3.86,1.29-7.6,3.11-11.79,3.23C.07,12.91,.21,7.74,0,2.59-.08,.43,.43,0,2.57,.02c15.16,.12,30.33,.06,45.5,.06-.35,1.83-1.92,2.3-3.34,2.57-5.95,1.14-11.1,4.3-16.66,6.42Z"/>
    <path class="cls-63" d="M656.01,.09V64.94h-2V.09h2Z"/>
    <path class="cls-16" d="M443.03,219.9c-.04-1.18-.12-2.35-1.03-3.24-1.92-1.87-3.57-4.39-1.39-6.42,2.14-1.99,4.29-5.68,8.42-3.33-.33,1.33-.67,2.66-1,4-3.31,2.12-3.31,5.71-4,8.99h-1Z"/>
    <path class="cls-52" d="M444.03,219.9c.31-3.45-1.31-7.76,4-8.99-.78,3.07-3.65,5.45-3,8.99h-1Z"/>
    <path class="cls-72" d="M1415.95,133.98c1.63,.96,3.85,.97,4.62-.3,2.51-4.14,6.3-2.66,9.66-2.66,91.42-.05,182.84-.02,274.26-.1,3.91,0,7.28,.37,9.42,4.06-8.74,3.55-17.43,7.19-25.67,11.82-1.57,.89-3.41,1.41-4.34,3.16-3.85,1.8-7.9,2.28-12.14,2.28-79.47-.04-158.94-.02-238.41-.06-3.59,0-7.43,.75-10.43-2.21-3.74-4.72-4.88-10.56-6.99-15.99Z"/>
    <path class="cls-94" d="M1422.94,149.97c86.99,0,173.98,0,260.97,0-4.38,4.22-8.8,8.4-13.14,12.66-1.44,1.41-3.04,2.51-4.85,3.33-16.08,2.23-32.26,1.44-48.36,1-11.81-.32-23.54-.35-35.35,0-12.43,.36-24.91-1.14-37.39-.78-7.64,.22-15.28-.23-22.93,.82-7.29,1-14.6-.58-21.9-.78-12.32-.34-24.57,1.34-36.9,1.09-8.61-.17-17.21-1.92-25.86-.25-1.78,.34-3.66-.07-5.29-1.09-2.86-5.41-7.41-9.87-9-15.98Z"/>
    <path class="cls-58" d="M1646.92,178.94c-6.84,5.39-14.82,8.4-23,10.99-.63,.21,.22,.22-.42,.24-8.67,.37-16.92,3.46-25.56,3.88-5.97,.28-11.95-.14-17.91,.88-7.08,1.21-13.8-1.54-20.7-2.36-1.89-.22-3.5-.14-5.3,.56-7.29,2.85-14.52,3.11-21.59-.88-2.78-1.57-5.85-1.46-8.73-.43-7.5,2.68-14.99,4.34-22.76,1.12-.79-.33-1.61-.06-2.44,.11-14.47,2.9-28.62,1.29-42.56-3.11-6.09-1.86-9.83-6.7-14-10.99,2-2.81,5.18-2.7,8.07-3.06,2.96-.37,5.98-.17,8.97-.17,56.03,0,112.07,.01,168.1-.02,4.66,0,9.3,.26,13.96,.3,2.45,.02,4.63,.54,5.88,2.95Z"/>
    <path class="cls-68" d="M1455.94,189.93c3.47-1.03,7.14-.53,10.26,.48,8.49,2.73,17.29,1.71,25.76,1.84,5.22,.08,10.17-1.41,15.9,.06,3.95,1.02,9.4,.14,13.98-2.16,4.05-2.03,8.45-2.15,12.75,.69,4.91,3.23,11.2,3.65,15.79,1.04,5.64-3.21,10.68-1.66,15.63-.47,6.17,1.48,12.03,1.53,18.23,.72,5.08-.67,10.31-.17,15.47-.2,1.33,0,3.13,.52,3.92-.15,6.4-5.37,13.51-1.65,20.29-1.85-5.65,4.36-12.61,5.75-19.16,7.66-20,5.85-40.15,10.84-61.38,9.44-10.44-.69-21.01-.7-31.45,.02-14.67,1-28.17-2.33-41.4-8.2-5.32-2.36-10.47-4.74-14.59-8.92Z"/>
    <path class="cls-67" d="M1431.94,165.95c6.82-1.39,13.57-2.29,20.67-1.48,10.07,1.16,20.29,.94,30.4,.11,8.64-.7,17.2-.95,25.83,.03,3.95,.45,8.03,.69,11.95,.22,15.6-1.87,31.28-1.18,46.85-.6,9.32,.35,18.54-.28,27.79-.18,18.28,.19,36.55,1.29,54.84,.89,3.32-.07,6.63,.13,9.92-.76,2.11-.57,4.36-.56,5.74,1.76-2.07,2.8-4.79,4.72-8,5.99-3.19,2.41-6.84,3.22-10.77,3.23-67.17,.07-134.33-.02-201.5,.03-3.72,0-6.79-1.25-9.71-3.26-1.44-1.93-3.55-3.41-4-6Z"/>
    <path class="cls-33" d="M1435.94,171.94c4.57,1.07,9.22,1.02,13.88,1.01,48.44-.03,96.88-.02,145.32-.02,18.13,0,36.27-.02,54.4,.02,2.85,0,5.64-.19,8.38-1.02-2.8,3.69-6.68,5.69-11,6.99-5.26-.33-10.52-.95-15.78-.96-58.77-.07-117.54-.06-176.31,0-4.3,0-8.59,.62-12.89,.96-2-2.33-4-4.66-6-6.99Z"/>
    <path class="cls-86" d="M784,191.93c-4.09,1.67-8.43,2.71-10.94,7.12-1.65,2.89-5.47,1.89-8.2,3-2.87,1.16-5.15,2.18-6.21,5.67-1.33,4.36-5.97,5.36-9.64,7.2,.33-1.62,.83-3.23,.96-4.87,.17-2.25,.82-3.94,3.36-4.1,2.21-.14,3.07-1.7,3.85-3.41,.48-1.07,1.08-2.23,.17-3.26-1.23-1.39-2.59-.39-3.54,.35-4.57,3.52-4.74,.46-4.81-3.04-.04-2.15-.54-4.32-.32-6.43,.33-3.3,.1-7.12,5.16-7.4,2.89-.16,3.09-2.67,3.13-4.85,.1-4.65,.04-9.3,.05-13.94-.54-3.34,1.16-5.43,4.05-6.52,2.28-.86,4.81-.94,6.79-2.72,.91-.82,2.17-.35,3.29,.1,4.43,1.77,4.12,1.69,4.94-3.17,.77-4.58,.14-9.52,2.94-13.68,3.53,3.23,4.77,7.61,6,11.99,3.18,6.95,5.34,14.24,6.63,21.72,1.05,6.09-1.61,11.31-5.07,16.11-.96,1.33-2.4,2.32-2.56,4.13Z"/>
    <path class="cls-74" d="M779,137.97c1.81,6.15-1.43,11.96-1.25,18.07,.1,3.5-2.65,4.41-5.57,2.34-1.06-.75-1.91-1.78-3.21-3.01-1.11,2.45-2.05,4.5-5.59,3.39-3.82-1.2-3.95,3.75-6.38,5.19-2,.67-4,1.33-6,2-1.59-.79-2.7-2.05-2.84-3.81-.35-4.44-.7-8.9,.45-13.3,.74-2.84,2.18-4.96,4.92-6.43,3.82-2.05,4.34-4.33,2.56-8.56-1.64-3.4-2.28-6.84-.55-10.44,.89-1.85,.51-3.86,.51-5.83,0-2.31,.08-4.72,2.95-5.59,7.37,5.82,12.59,13.48,18,20.98,.67,1.66,1.33,3.33,2,4.99Z"/>
    <path class="cls-52" d="M459.03,80.02c1.33-.33,2.67-.67,4-1,.97,1,1.16,2.3,.15,3.1-3.77,2.96-3.15,7.04-3.15,11,0,34.12,0,68.25,.02,102.37,0,2.81-.39,5.66,.91,8.35,.97,2.02-.29,3.12-1.86,3.97-1.03,.56-2.17,1.17-3.18,.05-1.29-1.42-.58-2.92,.3-4.1,1.72-2.31,1.83-4.88,1.83-7.58-.03-32.13-.02-64.25-.02-96.38,0-1,.02-2-.04-2.99-.11-1.74-.4-3.56-2.69-3.39-1.91,.14-2.16,1.81-2.23,3.37-.06,1.33-.04,2.66-.04,3.99,0,30.63,.02,61.25-.05,91.88,0,2.17,1.04,6.06-1.42,6.09-2.98,.04-1.43-3.75-1.44-5.73-.12-31.96,.05-63.92-.23-95.88-.05-5.14,3.59-9.9,1.14-15.12,.67,0,1.33,0,2,0,1.89-1,4.41-.12,6-2Z"/>
    <path class="cls-57" d="M564.03,63.03c3.67,0,7.33,0,11,0,.84,2.73,1.03,5.52,1.02,8.37-.04,22.96-.02,45.92-.02,68.87,0,8.77-1.55,10.5-10.42,11.64-7.94,1.02-8.57,1.72-8.57,9.65,0,6.82,.02,13.64-.02,20.46,0,2,.13,4.42-2.6,4.61-2.79,.19-3.02-2.44-3.15-4.26-.31-4.3-.24-8.64-.22-12.96,.01-2.77-.95-4.52-4.01-4.46-1.61-16.24-.89-32.53-.98-48.8-.09-15.31-.04-30.63,0-45.94,0-2.86,.04-5.55-4.02-5.18,3.78-1.97,7.84-.57,11.75-1,3.41-.38,6.99,.94,10.25-.99Z"/>
    <path class="cls-50" d="M249.79,170.47c.75-.11,1.32,.2,1.44,.92,.18,1.07-.31,1.88-1.39,2.16-.72,.19-1.27-.19-1.42-.91-.22-1.11,.3-1.83,1.37-2.16Z"/>
    <path class="cls-38" d="M459.03,80.02c-1,3.68-3.78,2-6,2,0-.33,0-.67,0-1,2-.33,4-.67,6-1Z"/>
    <path class="cls-88" d="M1050.98,42.05c.58-.58,1.25-1.04,2.04-.55,.71,.44,.4,1.04-.04,1.55-.67-.33-1.33-.67-2-1Z"/>
    <path class="cls-62" d="M759,111.99c-1.03,1.97-1.36,4.09-.69,6.17,.66,2.04,.58,4.07-.53,5.65-2.3,3.24-1.17,6.15,.22,9.16,1.37,4.99,.59,7.05-3.72,9.21-3.28,1.64-5.71,.43-7.56-2.49-.42-.66-.8-1.67-1.78-1.42-1.54,.39-1.76,1.81-1.96,3.13-.8,5.37-3.1,9.65-8.21,12.21-6.03,3.03-8.3,2.14-9.86-4.33-.33-1.39-1.37-1.74-2.47-2.12-2.23-2.63-4.71-3.07-7.77-1.28-1.83,1.08-3.91,1.8-6.01,2.24-4.02,.84-5.4-.36-5.8-4.82,.17-.47,.43-.9,.75-1.28,3.31-4.56,8.99-5.09,13.38-7.84,1.69-1.06,3.03-2.08,2.88-4.14-.37-4.95,.71-9.78,1.13-14.67,2.4-7.09,2.88-14.43,2.75-21.84-.02-1.37,.06-2.64,1.27-3.55,6.47,.95,11.11,5.79,17,8,.63,1.22,1.63,1.88,3,2,1.67,.55,2.46,2.28,4,2.99,3.33,3,6.67,6,10,8.99Z"/>
    <path class="cls-5" d="M749.01,103c-1.93-.21-3.1-1.42-4-2.99,2.96-1.17,2.6,2.08,4,2.99Z"/>
    <path class="cls-45" d="M593.02,63.04c7.01,.18,13.96,1.58,21,1,2.1,1.63,2.17,3.97,2.18,6.32,.08,20.39,.11,40.78-.02,61.17-.02,3.17-.8,6.23-1.52,9.28-1.1,2.4-3.63,2.66-5.66,3.57-2.39,1.08-4.81,2.1-7.2,3.19-3.99,1.82-6.17,4.45-5.77,9.16,.26,3.01,.43,6.39-3.01,8.23-2.22-2.85-2.36-6.24-1.93-9.51,1.89-14.22,.63-28.49,.88-42.72,.23-13.1,.12-26.22,0-39.32-.03-3.52,.49-6.92,1.05-10.35Z"/>
    <path class="cls-7" d="M593.02,164.95c.33-2.29,1.28-4.69,.88-6.84-1.41-7.58,2.51-11.35,8.93-13.52,3.32-1.12,6.19-4.12,10.19-2.62,.55,.38,1.25,.88,1.21,1.48-.44,7.03,2.77,13.74,1.83,20.81-.2,1.53-.59,2.89-2.04,3.69-2.96,6.29-1.92,13-1.96,19.57-.08,11.64,.11,9.82-10.2,13.83-7.27,2.83-8.2,3.92-5.84,11.56-2.23,.11-3.88-.35-4.1-3.09-.18-2.24-1.67-3.52-3.9-3.9,1.85-2.18,2.04-4.75,2.03-7.48-.01-7.41-.77-14.79,3.29-21.8,1.97-3.4,.8-7.8-.33-11.69Z"/>
    <path class="cls-84" d="M725.01,90.01c1.69,8.84,1.27,17.52-2,25.98-1.6,3.27-3.99,5.26-7.68,6.33-9.16,2.66-9.1,2.85-9.18,12.31-.02,2.96,.28,6-2.14,8.34-1.48,5.71-7.09,6.26-11.18,8.21-3.75,1.79-4.88,4.01-4.68,7.68,.24,4.44-.27,8.6-3.82,11.9-3.64,3.37-8.35,4.26-12.68,2.11-.58-2.11,.72-3.28,2.37-3.74,3.31-.91,3.81-3.28,3.8-6.13-.01-2.66-.04-5.32,.04-7.97,.09-3.04-.38-5.45-3.92-6.53-2.55-.77-3.8-3.1-3.95-5.83-.31-5.85-.52-11.04,5.75-15.1,3.71-2.41,6.44-7.49,6.11-13-.37-6.04,.04-11.9-2.19-18.01-2.28-6.24-1.04-13.45-.41-20.24,.1-1.02,.88-1.76,1.76-2.3,7.67,2,15.33,4,23,6,6.83,3.69,14.69,5.21,21,9.99Z"/>
    <path class="cls-53" d="M614.02,167.95c-.27-5.24,.65-10.51-1.72-15.67-1.48-3.23,.77-6.83,.72-10.31,2.03-25.96,.55-51.96,1-77.93,6.67,.66,13.33,1.33,20,1.99,5.67,.67,11.33,1.33,17,2,2.33,.33,4.67,.67,7,1,2.38,1.44,3.15,3.64,3.15,6.32,.03,16.07,.11,32.14-.05,48.21-.04,3.81-1.61,6.8-4.88,8.66-4.97,2.83-5.84,7.58-5.31,12.4,.36,3.25-.05,5.84-1.91,8.35-1.61,4.29-5.81,6.62-10.35,5.64-2.28-.5-2.5-2.46-2.59-4.3-.17-3.48-.03-6.99-.42-10.44-.13-1.17,.57-3.57-1.69-3.49-2.1,.08-3.79,1.46-3.85,3.85-.11,3.99-.29,7.99-.03,11.97,.3,4.51-.96,7.41-5.9,7.99-3.08,.36-4.75,3.62-7.84,4.17-.87,.15-1.63,.23-2.32-.39Z"/>
    <path class="cls-4" d="M649.02,152.96c.08-6.8-1.67-13.75,1.91-20.28,.65-1.18,.65-2.65,2.5-2.34,4.01,.67,5.31-2.34,5.34-5.05,.17-18.13,.02-36.27-.07-54.4,0-.62-.45-1.24-.68-1.86,7.37,1.11,14.49,3.62,22,4,.33,.33,.67,.67,1,1,0,5.66-.05,11.32,.02,16.97,.04,2.86-.95,6.13,2.75,7.79,.42,.19,.77,1.18,.68,1.72-.99,6.29,1.03,13.02-.9,18.8-1.46,4.37-2.99,10.33-9.12,11.85-2.02,.5-2.39,2.11-2.41,3.87-.03,2.33,.06,4.66-.04,6.99-.14,3.25,1.06,5.09,4.58,4.95,2.68-.11,3.87,1.02,3.68,3.94-.3,4.47-.35,8.98-.2,13.46,.13,4-.39,7.07-5.49,6.63-1.31-.11-2.2,.63-2.56,1.92,.54,.95,.61,2.11-.03,2.81-3.63,3.99-4.12,8.81-3.92,13.85,.07,1.78-.78,3.16-2.05,4.32,.57,3.96-2.62,4.59-5.12,5-2.69,.45-2.46-2.37-3.14-4.1-1.65-4.24-2.41-8.49-.74-12.9,1.14-1.17,.52-2.35,.2-3.67-1.83-7.46-2.15-14.95,.16-22.38,1.08-3.47-.28-4.75-3.6-4.27-1.62,.23-3.18,.88-4.76,1.35Z"/>
    <path class="cls-4" d="M648.02,186.93c.27,.4,.45,.92,.82,1.19q5,3.64-.82,6.81c-1.3-.02-2.6,.04-3.89-.09-1.72-.17-3.37-.86-3.48-2.75-.12-2.02,1.74-2.09,3.16-2.15,2.11-.1,2.95-1.81,4.21-3Z"/>
    <path class="cls-4" d="M654.01,181.94c-.22,1.83-.97,2.88-3,2,.1-1.06-.35-2.39,.67-3.08,1.06-.71,1.55,.68,2.33,1.08Z"/>
    <path class="cls-40" d="M723.01,145.97c2.95,.03,4.36,1.37,3.69,4.41-.63,2.85,.57,3.64,3.25,3.1,6.1-1.23,10.75-6.19,10.78-12.42,.01-2.8,1.72-4.25,3.09-5.94,1.35-1.67,3-1.07,3.91,.85,1.02,2.17,.44,6.22,4.38,5.21,3.77-.96,6.96-3.3,5.91-8.2,2.31,3.76,1.65,8.36-2.6,10.36-4.16,1.95-4.94,5.22-5.24,8.79-.38,4.6-.66,9.29,.84,13.82-1.39,.54-2.76,1.14-4.17,1.6-5.71,1.87-9.03,5.27-7.86,11.76,.2,1.12,.14,2.34-.07,3.46-.45,2.4-.63,5.69-3.78,5.53-2.99-.15-6.89,.77-8.6-3.36-.52-1.25-.51-3.64-2.4-3.16-1.97,.49-1.98,2.85-1.9,4.63,.08,2.13,.6,4.24,.74,6.37,.17,2.51-.75,5.21-3.11,5.68-5.97,1.2-9.87,6.5-15.85,7.44v-21.98c-5.43-7.63-2.25-18.92,6.51-22.73,2.14-.93,4.13-2,6.11-3.24,2.78-1.75,4.4-3.87,4.29-7.24-.06-1.85,.27-3.67,2.09-4.75Z"/>
    <path class="cls-69" d="M723.01,145.97c0,.83-.16,1.7,.03,2.48,1.78,7.44-2.84,11.67-8.56,13.47-9.02,2.84-11.77,8.39-10.5,17.04,.24,1.62,.03,3.31,.03,4.97-7.67,3-15.33,6-23,8.99-.7-2.69-1.53-4.24-4.72-2.05-2.97,2.04-6.44,3.43-10.27,3.04,0-1.83,.25-3.7-.04-5.49-1.04-6.4,1.54-11.3,6.04-15.5,2.44-.45,5.07-.46,7.29-1.43,4.37-1.9,6.88-5.13,6.78-10.38-.19-10.73,0-10.92,10.06-14.1,2.93-.92,5.52-2.16,7.86-4.06-.14,3.29,1.09,4.7,4.44,3.25,2.25-.98,4.68-1.66,6.75-2.92,3.84-2.32,6.82-2.98,7.8,2.67Z"/>
    <path class="cls-74" d="M785,149.96c-.24,.73-.3,1.61-.77,2.14-.35,.41-.91-.13-.88-.68,.05-.99,.84-1.26,1.64-1.46h0Z"/>
    <path class="cls-69" d="M704.01,142.97v-8.92c0-10.97-.03-11.08,10.69-13.93,3.13-.83,5.87-2.1,8.31-4.13-1.07,4.89-1.52,9.86-.72,14.78,.42,2.6-.79,3.65-2.6,4.67-5.06,2.86-10.86,4.16-15.68,7.53Z"/>
    <path class="cls-28" d="M732.2,180.1c-1.72,.32-3.45,.21-3.31-1.77,.14-1.9,2.01-2.34,3.73-2.32,1.36,.02,2.81,.32,2.88,1.96,.1,2.45-1.78,2.23-3.3,2.12Z"/>
    <g class="cls-59">
      <path class="cls-64" d="M991.01,97.5l25.07,20.57-9.55,7.9c-10.25,8.48-29.98,10.35-44.06,4.18l-2.44-1.07c-14.09-6.17-17.19-18.04-6.94-26.52l34.96-28.91c-6.42,7.41-5.79,16.67,2.97,23.86Z"/>
      <path class="cls-96" d="M1043.8,140.82l-27.73-22.75,32.2-26.64c10.25-8.48,7.14-20.35-6.94-26.52l-1.54-.68c4.61,1.54,8.77,3.66,12.09,6.39l25.96,21.3-29.61,24.49c-8.88,7.34-10.02,16.63-4.43,24.4Z"/>
      <path class="cls-34" d="M1048.28,91.43l-32.2,26.64-25.07-20.57c-8.76-7.19-9.39-16.45-2.97-23.86l6.48-5.36c1.41-.86,2.91-1.68,4.58-2.42l.24-.1c12.22-5.39,28.03-5.67,40.47-1.52l1.54,.68c14.09,6.17,17.19,18.04,6.94,26.52Z"/>
      <path class="cls-80" d="M1048.28,91.43l-32.2,26.64-25.07-20.57c-8.76-7.19-9.39-16.45-2.97-23.86l6.48-5.36c1.41-.86,2.91-1.68,4.58-2.42l.24-.1c12.22-5.39,28.03-5.67,40.47-1.52l1.54,.68c14.09,6.17,17.19,18.04,6.94,26.52Z"/>
      <path class="cls-44" d="M1112.92,95.17l31.97,28.45-27.78,22.97c-4.53,3.75-10.5,6.48-17.1,8.17,1.75-.54,3.48-1.15,5.12-1.87l.24-.11c16.74-7.39,20.36-21.56,8.08-31.63l-35.61-29.23,29.82-24.67c-5.71,8.95-4.34,19.37,5.26,27.91Z"/>
      <path class="cls-30" d="M1105.37,152.78l-.24,.11c-1.64,.72-3.36,1.33-5.12,1.87-12.86,3.3-28.18,2.59-40.31-2.72l-2.44-1.07c-.65-.29-1.24-.6-1.86-.9-.99-.64-1.95-1.32-2.83-2.04l-8.78-7.2c-5.6-7.77-4.45-17.06,4.43-24.4l29.61-24.49,35.61,29.23c12.28,10.08,8.66,24.24-8.08,31.63Z"/>
      <path class="cls-24" d="M1105.37,152.78l-.24,.11c-1.64,.72-3.36,1.33-5.12,1.87-12.86,3.3-28.18,2.59-40.31-2.72l-2.44-1.07c-.65-.29-1.24-.6-1.86-.9-.99-.64-1.95-1.32-2.83-2.04l-8.78-7.2c-5.6-7.77-4.45-17.06,4.43-24.4l29.61-24.49,35.61,29.23c12.28,10.08,8.66,24.24-8.08,31.63Z"/>
      <path class="cls-31" d="M1245.59,159.06h0c-23.06,9.39-54.41,5.75-70.01-8.13l-30.69-27.31,43.88-36.29c13.35-11.05,9.3-26.52-9.05-34.55l-2.44-1.07c-1.93-.85-3.96-1.55-6.03-2.17,9.91,2.07,18.86,5.99,25.19,11.62l62.66,55.76c15.6,13.88,9.55,32.75-13.51,42.14Z"/>
      <path class="cls-35" d="M1179.72,52.77c18.35,8.04,22.4,23.51,9.05,34.55l-43.88,36.29-31.97-28.45c-9.6-8.54-10.97-18.96-5.26-27.91l12.22-10.1c1.54-1.28,3.27-2.43,5.11-3.47,.49-.21,.94-.45,1.44-.65h0c13.7-5.58,30.31-6.52,44.82-3.49,2.07,.62,4.1,1.32,6.03,2.17l2.44,1.07Z"/>
    </g>
    <g>
      <path class="cls-55" d="M1001.26,186.93s-2.92-9.93-2.92-11.33v-4.6c0-1.4,3.61-11,3.61-11,0,0,2.86,9.6,2.86,11v4.6c0,1.4-3.56,11.33-3.56,11.33Z"/>
      <path class="cls-55" d="M986.18,173.18s11.35-2.55,12.96-2.55h5.26c1.61,0,12.58,3.16,12.58,3.16,0,0-10.98,2.5-12.58,2.5h-5.26c-1.61,0-12.96-3.11-12.96-3.11Z"/>
    </g>
    <g>
      <path class="cls-60" d="M995.55,57.31s-2.92-6.8-2.92-7.76v-3.15c0-.96,3.61-7.54,3.61-7.54,0,0,2.86,6.58,2.86,7.54v3.15c0,.96-3.56,7.76-3.56,7.76Z"/>
      <path class="cls-60" d="M980.47,47.9s11.35-1.75,12.96-1.75h5.26c1.61,0,12.58,2.17,12.58,2.17,0,0-10.98,1.72-12.58,1.72h-5.26c-1.61,0-12.96-2.13-12.96-2.13Z"/>
    </g>
    <g>
      <path class="cls-60" d="M1030.41,30.48s-1.61-3.76-1.61-4.29v-1.74c0-.53,2-4.17,2-4.17,0,0,1.58,3.64,1.58,4.17v1.74c0,.53-1.97,4.29-1.97,4.29Z"/>
      <path class="cls-60" d="M1022.08,25.27s6.28-.97,7.16-.97h2.91c.89,0,6.96,1.2,6.96,1.2,0,0-6.07,.95-6.96,.95h-2.91c-.89,0-7.16-1.18-7.16-1.18Z"/>
    </g>
    <g>
      <path class="cls-60" d="M1254.36,130.41s-1.61-3.76-1.61-4.29v-1.74c0-.53,2-4.17,2-4.17,0,0,1.58,3.64,1.58,4.17v1.74c0,.53-1.97,4.29-1.97,4.29Z"/>
      <path class="cls-60" d="M1246.02,125.2s6.28-.97,7.16-.97h2.91c.89,0,6.96,1.2,6.96,1.2,0,0-6.07,.95-6.96,.95h-2.91c-.89,0-7.16-1.18-7.16-1.18Z"/>
    </g>
    <g class="cls-27">
      <g>
        <path class="cls-31" d="M1283.91,164.26s5.06-51.6,7.58-58.21l8.25-21.65c2.52-6.61,35.51-45.8,35.51-45.8,0,0-4.71,49.96-7.23,56.57l-8.25,21.65c-2.52,6.61-35.86,47.44-35.86,47.44Z"/>
        <path class="cls-31" d="M1242.74,74.46s54.13,6.86,61.14,9.53l22.95,8.74c7.01,2.67,49.26,35.8,49.26,35.8,0,0-52.41-6.46-59.42-9.13l-22.95-8.74c-7.01-2.67-50.98-36.2-50.98-36.2Z"/>
      </g>
    </g>
  </g>
</svg>